<svg viewBox="0 0 760 330" width="100%" role="img" aria-label="Histogram comparison over 60 runs each. Left, wall clock: delivery frame spread across 22 distinct values from 140 to 164, tallest bar 6; timing assertion passed 9 of 60 runs. Right, virtual clock: a single bar at frame 144 with all 60 runs; assertion passed 60 of 60." font-family="ui-monospace,SFMono-Regular,Menlo,monospace">
  <rect x="8" y="8" width="362" height="314" rx="10" fill="#0b0f1a" stroke="#2b3a55"/>
  <text x="189" y="34" fill="#f1f5f9" font-size="13" font-weight="700" text-anchor="middle">wall clock — 60 runs</text>
  <text x="189" y="52" fill="#f87171" font-size="11" text-anchor="middle">22 distinct outcomes · "visible by 2.5 s": 9/60</text>
  <g fill="#f87171" opacity="0.85">
    <rect x="49.8"  y="242" width="8" height="18"  /><rect x="83.9"  y="242" width="8" height="18"/>
    <rect x="95.3"  y="224" width="8" height="36"  /><rect x="106.7" y="242" width="8" height="18"/>
    <rect x="118.1" y="242" width="8" height="18"  /><rect x="129.4" y="224" width="8" height="36"/>
    <rect x="140.8" y="206" width="8" height="54"  /><rect x="152.2" y="206" width="8" height="54"/>
    <rect x="163.6" y="224" width="8" height="36"  /><rect x="175.0" y="224" width="8" height="36"/>
    <rect x="186.3" y="206" width="8" height="54"  /><rect x="197.7" y="170" width="8" height="90"/>
    <rect x="209.1" y="206" width="8" height="54"  /><rect x="220.5" y="242" width="8" height="18"/>
    <rect x="231.9" y="188" width="8" height="72"  /><rect x="243.2" y="188" width="8" height="72"/>
    <rect x="254.6" y="206" width="8" height="54"  /><rect x="266.0" y="188" width="8" height="72"/>
    <rect x="277.4" y="242" width="8" height="18"  /><rect x="288.8" y="188" width="8" height="72"/>
    <rect x="300.1" y="152" width="8" height="108" /><rect x="322.9" y="188" width="8" height="72"/>
  </g>
  <line x1="30" y1="260" x2="350" y2="260" stroke="#475569"/>
  <g fill="#64748b" font-size="10">
    <text x="53.8"  y="278" text-anchor="middle">140</text>
    <text x="110.7" y="278" text-anchor="middle">145</text>
    <text x="167.6" y="278" text-anchor="middle">150</text>
    <text x="224.5" y="278" text-anchor="middle">155</text>
    <text x="281.4" y="278" text-anchor="middle">160</text>
    <text x="338.3" y="278" text-anchor="middle">165</text>
  </g>
  <text x="189" y="304" fill="#64748b" font-size="10.5" text-anchor="middle">frame at which the confirmation entered the world</text>

  <rect x="390" y="8" width="362" height="314" rx="10" fill="#0b0f1a" stroke="#38bdf8" stroke-width="1.5"/>
  <text x="571" y="34" fill="#f1f5f9" font-size="13" font-weight="700" text-anchor="middle">virtual clock — 60 runs</text>
  <text x="571" y="52" fill="#4ade80" font-size="11" text-anchor="middle">1 outcome · "visible by 2.5 s": 60/60</text>
  <rect x="473.3" y="80" width="10" height="180" fill="#4ade80"/>
  <text x="478.3" y="72" fill="#4ade80" font-size="10.5" text-anchor="middle">all 60 runs</text>
  <line x1="412" y1="260" x2="732" y2="260" stroke="#475569"/>
  <g fill="#64748b" font-size="10">
    <text x="435.8" y="278" text-anchor="middle">140</text>
    <text x="492.7" y="278" text-anchor="middle">145</text>
    <text x="549.6" y="278" text-anchor="middle">150</text>
    <text x="606.5" y="278" text-anchor="middle">155</text>
    <text x="663.4" y="278" text-anchor="middle">160</text>
    <text x="720.3" y="278" text-anchor="middle">165</text>
  </g>
  <text x="571" y="304" fill="#64748b" font-size="10.5" text-anchor="middle">frame 144 — every run, forever</text>
</svg>