<svg viewBox="0 0 760 430" width="100%" role="img" aria-label="Two models of time. Left: a sampled-time runtime — a vsync timeline with unrecorded inputs (fetch resolution, setTimeout, GC pause, compositor commit, microtask drain) striking it at arbitrary moments, each marked as never recorded. Right: a frame-fold runtime — an input tape of per-frame cells feeding a chain of frame transactions in order; every arrow into the world originates from the tape." font-family="ui-monospace,SFMono-Regular,Menlo,monospace">
  <rect x="8" y="8" width="362" height="414" rx="10" fill="#0b0f1a" stroke="#2b3a55"/>
  <text x="189" y="34" fill="#f1f5f9" font-size="13.5" font-weight="700" text-anchor="middle">the sampled-time runtime</text>
  <text x="189" y="52" fill="#64748b" font-size="11" text-anchor="middle">view = render(state, wallClock)</text>
  <line x1="36" y1="330" x2="342" y2="330" stroke="#475569" stroke-width="1.5"/>
  <g stroke="#475569" stroke-width="1">
    <line x1="36" y1="324" x2="36" y2="336"/><line x1="87" y1="324" x2="87" y2="336"/>
    <line x1="138" y1="324" x2="138" y2="336"/><line x1="189" y1="324" x2="189" y2="336"/>
    <line x1="240" y1="324" x2="240" y2="336"/><line x1="291" y1="324" x2="291" y2="336"/>
    <line x1="342" y1="324" x2="342" y2="336"/>
  </g>
  <text x="189" y="352" fill="#64748b" font-size="10.5" text-anchor="middle">vsync — a deadline, not a boundary</text>
  <g stroke="#f87171" stroke-width="1.5" fill="none">
    <path d="M70 90 L102 322"/><path d="M150 74 L128 322"/><path d="M215 96 L246 322"/>
    <path d="M298 78 L281 322"/><path d="M330 130 L317 322"/>
  </g>
  <g fill="#f87171" font-size="10.5">
    <text x="70" y="82" text-anchor="middle">fetch resolves (IPC)</text>
    <text x="150" y="66" text-anchor="middle">setTimeout fires</text>
    <text x="215" y="88" text-anchor="middle">GC pause ends</text>
    <text x="298" y="70" text-anchor="middle">compositor commit</text>
    <text x="318" y="122" text-anchor="middle">microtasks drain</text>
  </g>
  <text x="189" y="384" fill="#f87171" font-size="11" text-anchor="middle">arrival times owned by the machine,</text>
  <text x="189" y="400" fill="#f87171" font-size="11" text-anchor="middle">recorded by no one — every run is a different program</text>

  <rect x="390" y="8" width="362" height="414" rx="10" fill="#0b0f1a" stroke="#38bdf8" stroke-width="1.5"/>
  <text x="571" y="34" fill="#f1f5f9" font-size="13.5" font-weight="700" text-anchor="middle">the frame-fold runtime</text>
  <text x="571" y="52" fill="#38bdf8" font-size="11" text-anchor="middle">state[n+1] = F(state[n], input[n])</text>
  <g>
    <rect x="418" y="86" width="88" height="46" rx="6" fill="#0e1626" stroke="#2b3a55"/>
    <text x="462" y="106" fill="#e2e8f0" font-size="10.5" text-anchor="middle">frame n</text>
    <text x="462" y="121" fill="#64748b" font-size="9.5" text-anchor="middle">transaction</text>
    <rect x="527" y="86" width="88" height="46" rx="6" fill="#0e1626" stroke="#2b3a55"/>
    <text x="571" y="106" fill="#e2e8f0" font-size="10.5" text-anchor="middle">frame n+1</text>
    <text x="571" y="121" fill="#64748b" font-size="9.5" text-anchor="middle">transaction</text>
    <rect x="636" y="86" width="88" height="46" rx="6" fill="#0e1626" stroke="#2b3a55"/>
    <text x="680" y="106" fill="#e2e8f0" font-size="10.5" text-anchor="middle">frame n+2</text>
    <text x="680" y="121" fill="#64748b" font-size="9.5" text-anchor="middle">transaction</text>
    <g stroke="#475569" stroke-width="1.5" fill="none">
      <path d="M506 109 L527 109"/><path d="M615 109 L636 109"/>
      <path d="M521 105 l6 4 l-6 4" fill="#475569"/><path d="M630 105 l6 4 l-6 4" fill="#475569"/>
    </g>
  </g>
  <g stroke="#38bdf8" stroke-width="1.5" fill="none">
    <path d="M462 214 L462 134"/><path d="M571 214 L571 134"/><path d="M680 214 L680 134"/>
    <path d="M458 141 l4 -7 l4 7" fill="#38bdf8"/><path d="M567 141 l4 -7 l4 7" fill="#38bdf8"/><path d="M676 141 l4 -7 l4 7" fill="#38bdf8"/>
  </g>
  <g>
    <rect x="414" y="214" width="96" height="70" rx="6" fill="#0c1a22" stroke="#22d3ee"/>
    <text x="462" y="234" fill="#22d3ee" font-size="10" text-anchor="middle">input[n]</text>
    <text x="462" y="250" fill="#e2e8f0" font-size="9.5" text-anchor="middle">buttons ○ △</text>
    <text x="462" y="265" fill="#e2e8f0" font-size="9.5" text-anchor="middle">deliveries: —</text>
    <text x="462" y="279" fill="#e2e8f0" font-size="9.5" text-anchor="middle">timers due: —</text>
    <rect x="523" y="214" width="96" height="70" rx="6" fill="#0c1a22" stroke="#22d3ee"/>
    <text x="571" y="234" fill="#22d3ee" font-size="10" text-anchor="middle">input[n+1]</text>
    <text x="571" y="250" fill="#e2e8f0" font-size="9.5" text-anchor="middle">buttons: —</text>
    <text x="571" y="265" fill="#e2e8f0" font-size="9.5" text-anchor="middle">deliver: order✓</text>
    <text x="571" y="279" fill="#e2e8f0" font-size="9.5" text-anchor="middle">timers due: —</text>
    <rect x="632" y="214" width="96" height="70" rx="6" fill="#0c1a22" stroke="#22d3ee"/>
    <text x="680" y="234" fill="#22d3ee" font-size="10" text-anchor="middle">input[n+2]</text>
    <text x="680" y="250" fill="#e2e8f0" font-size="9.5" text-anchor="middle">buttons: —</text>
    <text x="680" y="265" fill="#e2e8f0" font-size="9.5" text-anchor="middle">deliveries: —</text>
    <text x="680" y="279" fill="#e2e8f0" font-size="9.5" text-anchor="middle">timer: toast⏻</text>
  </g>
  <text x="571" y="312" fill="#94a3b8" font-size="10.5" text-anchor="middle">the tape — the ONLY door into the world</text>
  <text x="571" y="384" fill="#4ade80" font-size="11" text-anchor="middle">everything that can change the world is on the tape,</text>
  <text x="571" y="400" fill="#4ade80" font-size="11" text-anchor="middle">so the tape replays the world — byte for byte</text>
</svg>